<?xml version="1.0" standalone="no"?>
<!DOCTYPE svg PUBLIC "-//W3C//DTD SVG 20010904//EN"
 "http://www.w3.org/TR/2001/REC-SVG-20010904/DTD/svg10.dtd">
<svg version="1.0" xmlns="http://www.w3.org/2000/svg"
 width="500.000000pt" height="500.000000pt" viewBox="0 0 500.000000 500.000000"
 preserveAspectRatio="xMidYMid meet">

<g transform="translate(0.000000,500.000000) scale(0.100000,-0.100000)"
fill="#000000" stroke="none">
<path d="M886 2943 c-63 -215 -106 -379 -102 -390 5 -11 43 -13 213 -11 l208
3 52 184 c29 101 53 193 55 205 3 21 1 21 -209 24 -195 2 -212 1 -217 -15z"/>
<path d="M1317 2773 c-14 -24 -58 -205 -53 -218 5 -13 23 -15 118 -13 l113 3
27 90 c15 50 27 102 27 118 l1 27 -114 0 c-63 0 -117 -3 -119 -7z"/>
<path d="M2135 2628 c-85 -30 -135 -105 -135 -204 1 -149 116 -244 261 -213
40 9 62 21 95 54 139 139 40 378 -156 374 -19 0 -48 -5 -65 -11z m145 -60 c59
-30 83 -74 83 -148 0 -102 -56 -160 -155 -160 -69 0 -113 26 -138 83 -55 120
15 242 140 246 14 1 46 -9 70 -21z"/>
<path d="M3426 2626 c-117 -44 -169 -193 -107 -314 36 -71 96 -104 188 -104
53 0 72 4 110 28 126 78 130 282 7 367 -50 35 -138 45 -198 23z m163 -64 c46
-34 65 -69 68 -129 5 -70 -16 -117 -67 -151 -49 -33 -146 -28 -186 8 -39 37
-54 73 -54 132 0 72 25 117 81 146 51 27 117 24 158 -6z"/>
<path d="M1616 2614 c-9 -24 -7 -377 3 -392 5 -8 17 -12 27 -10 16 3 19 14 22
76 l3 72 54 0 c138 0 204 40 212 127 5 60 -22 108 -72 129 -51 21 -241 20
-249 -2z m232 -50 c32 -22 43 -57 31 -92 -14 -39 -46 -52 -134 -52 l-75 0 0
80 0 80 78 0 c55 0 84 -5 100 -16z"/>
<path d="M2516 2614 c-9 -24 -7 -377 3 -392 5 -8 17 -12 27 -10 16 3 19 14 22
81 l3 77 84 0 c113 0 124 -11 137 -130 2 -17 9 -25 23 -25 40 0 31 119 -11
162 l-25 25 25 19 c14 11 31 37 37 59 15 51 -11 107 -61 132 -49 25 -255 26
-264 2z m253 -58 c13 -12 21 -31 21 -51 0 -54 -28 -69 -131 -73 l-89 -4 0 77
0 77 89 -4 c70 -2 93 -7 110 -22z"/>
<path d="M2902 2608 c3 -21 9 -23 71 -26 l67 -3 0 -172 c0 -95 4 -178 9 -185
5 -8 17 -12 27 -10 18 3 19 16 22 186 l2 182 63 0 c69 0 93 10 84 34 -6 14
-30 16 -177 16 l-171 0 3 -22z"/>
<path d="M755 2470 c-16 -26 -64 -215 -57 -222 5 -5 60 -7 122 -6 l113 3 29
103 c16 57 27 110 24 118 -4 11 -29 14 -115 14 -65 0 -112 -4 -116 -10z"/>
<path d="M1040 2458 c-21 -49 -110 -380 -105 -389 4 -5 94 -9 215 -9 l208 0
11 33 c39 125 101 363 97 374 -4 10 -49 13 -211 13 -203 0 -206 0 -215 -22z"/>
<path d="M3880 2370 c-41 -41 -10 -120 47 -120 30 0 73 42 73 70 0 29 -44 70
-75 70 -14 0 -34 -9 -45 -20z"/>
</g>
</svg>
